<svg xmlns="http://www.w3.org/2000/svg" viewBox="0 0 260 80">
  <defs>
    <linearGradient id="nokiaGrad" x1="0%" y1="100%" x2="100%" y2="0%">
      <stop offset="0%" stop-color="#0050FF"/>
      <stop offset="45%" stop-color="#00AADD"/>
      <stop offset="100%" stop-color="#00D45A"/>
    </linearGradient>
  </defs>
  <rect width="260" height="80" rx="10" fill="url(#nokiaGrad)"/>
  <!-- N -->
  <path d="M18 58 L18 22 L27 22 L43 46 L43 22 L52 22 L52 58 L43 58 L27 34 L27 58 Z" fill="white"/>
  <!-- O -->
  <path d="M68 22 C55 22 55 58 68 58 L80 58 C93 58 93 22 80 22 Z M68 30 L80 30 C86 30 86 50 80 50 L68 50 C62 50 62 30 68 30 Z" fill="white"/>
  <!-- K -->
  <path d="M98 22 L107 22 L107 37 L121 22 L133 22 L117 40 L133 58 L121 58 L107 43 L107 58 L98 58 Z" fill="white"/>
  <!-- I -->
  <path d="M138 22 L148 22 L148 58 L138 58 Z" fill="white"/>
  <!-- A -->
  <path d="M153 58 L167 22 L177 22 L191 58 L181 58 L175 42 L169 42 L163 58 Z M171 34 L174 34 L178 46 L168 46 Z" fill="white"/>
</svg>
